<svg width="38" height="32" viewBox="0 0 38 32" fill="none" xmlns="http://www.w3.org/2000/svg">
<path fill-rule="evenodd" clip-rule="evenodd" d="M24.151 2.64629C24.0956 2.74852 24.0111 2.83153 23.911 2.89079C23.4278 3.17683 22.9244 3.53845 22.4045 3.98521C24.0337 6.98643 23.9701 11.6257 22.1952 16.4297C22.3465 16.3425 22.4994 16.2568 22.6541 16.1726C28.6323 12.9204 35.0451 13.1641 36.9779 16.7168C38.9105 20.2695 35.6311 25.7858 29.6531 29.038C25.8731 31.0944 21.9194 31.7529 19.0343 31.0613C18.8422 31.0195 18.6517 30.9681 18.4629 30.9068C18.3409 30.8672 18.2208 30.8236 18.1025 30.7765C17.09 30.3933 16.2567 29.8105 15.6738 29.0308C15.2549 28.5565 14.8814 28.0138 14.5555 27.412C10.7558 30.5331 6.58464 31.6541 3.57434 29.9161C-1.09569 27.2198 -1.20358 18.6638 3.33338 10.8055C7.87031 2.94733 15.3341 -1.23729 20.0041 1.45896C20.424 1.70142 20.8071 1.99125 21.1532 2.32371C22.1485 1.43469 23.1433 0.679242 24.0676 0.0951612C24.5265 -0.19465 25.0654 0.222261 24.9137 0.743191C24.694 1.49711 24.4681 2.06212 24.151 2.64629ZM18.6897 3.73553C18.8912 3.85188 19.0873 3.99607 19.2742 4.16932C17.1403 6.46967 15.2188 9.30263 14.2563 12.2633C12.7661 16.8479 12.5991 21.3527 13.539 24.8185C12.59 25.6753 11.6219 26.3763 10.674 26.9077C8.07889 28.3628 6.09907 28.3383 4.88872 27.6394C3.67838 26.9408 2.66731 25.2384 2.62978 22.2634C2.59311 19.354 3.53653 15.7112 5.60994 12.1199C7.68335 8.52868 10.3664 5.89024 12.9044 4.46728C15.4995 3.01231 17.4794 3.03673 18.6897 3.73553ZM16.7563 13.076C15.6377 16.5173 15.3688 19.8183 15.744 22.4893C15.9319 22.2592 16.1175 22.0226 16.3006 21.7796C16.4999 21.4749 16.7175 21.1718 16.9524 20.8712C17.3041 20.3566 17.6438 19.8176 17.9685 19.2551C20.0419 15.6639 20.9853 12.0211 20.9486 9.11163C20.933 7.87087 20.748 6.85147 20.4498 6.03392C18.9809 7.87498 17.6678 10.2719 16.7563 13.076ZM17.7195 27.3706C18.1725 27.8568 18.6617 28.1806 19.1521 28.3637C19.6515 28.5384 20.2835 28.6609 21.074 28.6909C23.1177 28.7684 25.7506 28.1685 28.3968 26.7289C31.0432 25.2891 32.9773 23.4045 34.0224 21.6467C35.1008 19.8326 35.0144 18.6086 34.6688 17.973C34.323 17.3374 33.3423 16.5999 31.2333 16.5197C29.1898 16.4421 26.5568 17.0421 23.9104 18.4817C21.8266 19.6154 20.1843 21.0248 19.07 22.4311C18.8698 22.7221 18.6655 23.0065 18.4577 23.2844C18.3976 23.3779 18.34 23.4711 18.2848 23.5637C17.2063 25.3779 17.2928 26.602 17.6385 27.2375C17.6624 27.2814 17.6894 27.326 17.7195 27.3706Z" fill="#4C566A"/>
</svg>
